<svg width="18" height="17" viewBox="0 0 18 17" fill="none" xmlns="http://www.w3.org/2000/svg">
<path d="M15.6999 6.71392C15.6999 6.29229 15.3581 5.9505 14.9365 5.9505C14.5148 5.9505 14.173 6.29229 14.173 6.71392H15.6999ZM4.27032 6.71392C4.27032 6.29229 3.92853 5.9505 3.5069 5.9505C3.08528 5.9505 2.74348 6.29229 2.74348 6.71392H4.27032ZM0.68186 8.46018C0.383726 8.75832 0.383726 9.24169 0.68186 9.53982C0.979994 9.83795 1.46337 9.83795 1.7615 9.53982L0.68186 8.46018ZM9.22168 1L9.7615 0.460181C9.61833 0.317011 9.42415 0.23658 9.22168 0.23658C9.01921 0.23658 8.82503 0.317011 8.68186 0.460181L9.22168 1ZM16.6819 9.53982C16.98 9.83795 17.4634 9.83795 17.7615 9.53982C18.0596 9.24169 18.0596 8.75832 17.7615 8.46018L16.6819 9.53982ZM12.344 12.368C12.6257 12.0543 12.5999 11.5716 12.2862 11.2899C11.9726 11.0081 11.4899 11.034 11.2081 11.3477L12.344 12.368ZM7.23585 11.3466C6.95448 11.0326 6.47183 11.0062 6.15783 11.2876C5.84383 11.5689 5.81738 12.0516 6.09875 12.3656L7.23585 11.3466ZM7.69902 8.7137C7.69902 8.29208 7.35722 7.95028 6.9356 7.95028C6.51397 7.95028 6.17218 8.29208 6.17218 8.7137H7.69902ZM6.17218 9.38916C6.17218 9.81078 6.51397 10.1526 6.9356 10.1526C7.35722 10.1526 7.69902 9.81078 7.69902 9.38916H6.17218ZM12.2712 8.7137C12.2712 8.29208 11.9294 7.95028 11.5078 7.95028C11.0861 7.95028 10.7443 8.29208 10.7443 8.7137H12.2712ZM10.7443 9.38916C10.7443 9.81078 11.0861 10.1526 11.5078 10.1526C11.9294 10.1526 12.2712 9.81078 12.2712 9.38916H10.7443ZM14.173 6.71392V13.2842H15.6999V6.71392H14.173ZM14.173 13.2842C14.173 14.2829 13.3636 15.0923 12.3649 15.0923V16.6191C14.2069 16.6191 15.6999 15.1261 15.6999 13.2842H14.173ZM12.3649 15.0923H6.07842V16.6191H12.3649V15.0923ZM6.07842 15.0923C5.07971 15.0923 4.27032 14.2829 4.27032 13.2842H2.74348C2.74348 15.1261 4.23646 16.6191 6.07842 16.6191V15.0923ZM4.27032 13.2842V6.71392H2.74348V13.2842H4.27032ZM1.7615 9.53982L9.7615 1.53982L8.68186 0.460181L0.68186 8.46018L1.7615 9.53982ZM8.68186 1.53982L16.6819 9.53982L17.7615 8.46018L9.7615 0.460181L8.68186 1.53982ZM11.2081 11.3477C10.7182 11.8931 10.0105 12.2344 9.22254 12.2344V13.7613C10.4627 13.7613 11.5773 13.2215 12.344 12.368L11.2081 11.3477ZM9.22254 12.2344C8.43354 12.2344 7.7254 11.8929 7.23585 11.3466L6.09875 12.3656C6.86582 13.2216 7.98174 13.7613 9.22254 13.7613V12.2344ZM6.17218 8.7137V9.38916H7.69902V8.7137H6.17218ZM10.7443 8.7137V9.38916H12.2712V8.7137H10.7443Z" fill="#AAA4B6"/>
</svg>
