<svg width="40" height="40" viewBox="0 0 40 40" fill="none" xmlns="http://www.w3.org/2000/svg">
<path d="M9 9.75C8.30964 9.75 7.75 10.3096 7.75 11C7.75 11.6904 8.30964 12.25 9 12.25V9.75ZM31.2233 12.25C31.9137 12.25 32.4733 11.6904 32.4733 11C32.4733 10.3096 31.9137 9.75 31.2233 9.75V12.25ZM9 18.6367C8.30964 18.6367 7.75 19.1963 7.75 19.8867C7.75 20.577 8.30964 21.1367 9 21.1367V18.6367ZM31.2233 21.1367C31.9137 21.1367 32.4733 20.577 32.4733 19.8867C32.4733 19.1963 31.9137 18.6367 31.2233 18.6367V21.1367ZM9 27.5233C8.30964 27.5233 7.75 28.083 7.75 28.7733C7.75 29.4637 8.30964 30.0233 9 30.0233V27.5233ZM31.2233 30.0233C31.9137 30.0233 32.4733 29.4637 32.4733 28.7733C32.4733 28.083 31.9137 27.5233 31.2233 27.5233V30.0233ZM9 12.25H31.2233V9.75H9V12.25ZM9 21.1367H31.2233V18.6367H9V21.1367ZM9 30.0233H31.2233V27.5233H9V30.0233Z" fill="#FF34F0"/>
</svg>
