<svg width="14" height="14" viewBox="0 0 13 18" fill="none" xmlns="http://www.w3.org/2000/svg">
<path d="M12.0803 14.4282H11.4374V14.4286L12.0803 14.4282ZM4.07945 3.78611C3.72436 3.78611 3.4365 4.07397 3.4365 4.42906C3.4365 4.78415 3.72436 5.07201 4.07945 5.07201V3.78611ZM8.6521 5.07201C9.00719 5.07201 9.29505 4.78415 9.29505 4.42906C9.29505 4.07397 9.00719 3.78611 8.6521 3.78611V5.07201ZM4.41265 13.0236C4.11037 12.8373 3.71428 12.9313 3.52795 13.2336C3.34162 13.5359 3.43562 13.932 3.7379 14.1183L4.41265 13.0236ZM3.73968 14.1194C4.04196 14.3057 4.43805 14.2117 4.62438 13.9094C4.81071 13.6072 4.71671 13.2111 4.41443 13.0247L3.73968 14.1194ZM4.41265 10.7398C4.11037 10.5535 3.71428 10.6475 3.52795 10.9498C3.34162 11.2521 3.43562 11.6482 3.7379 11.8345L4.41265 10.7398ZM3.73968 11.8356C4.04196 12.0219 4.43805 11.9279 4.62438 11.6256C4.81071 11.3234 4.71671 10.9273 4.41443 10.7409L3.73968 11.8356ZM4.41265 8.45602C4.11037 8.2697 3.71428 8.3637 3.52795 8.66597C3.34162 8.96825 3.43562 9.36434 3.7379 9.55067L4.41265 8.45602ZM3.73968 9.55177C4.04196 9.7381 4.43805 9.6441 4.62438 9.34182C4.81071 9.03954 4.71671 8.64345 4.41443 8.45712L3.73968 9.55177ZM6.70315 8.45602C6.40087 8.2697 6.00478 8.3637 5.81845 8.66597C5.63213 8.96825 5.72613 9.36434 6.0284 9.55067L6.70315 8.45602ZM6.03019 9.55177C6.33247 9.7381 6.72856 9.6441 6.91488 9.34182C7.10121 9.03954 7.00721 8.64345 6.70494 8.45712L6.03019 9.55177ZM6.70315 10.7398C6.40087 10.5535 6.00478 10.6475 5.81845 10.9498C5.63213 11.2521 5.72613 11.6482 6.0284 11.8345L6.70315 10.7398ZM6.03019 11.8356C6.33247 12.0219 6.72856 11.9279 6.91488 11.6256C7.10121 11.3234 7.00721 10.9273 6.70494 10.7409L6.03019 11.8356ZM6.70315 13.0236C6.40087 12.8373 6.00478 12.9313 5.81845 13.2336C5.63213 13.5359 5.72613 13.932 6.0284 14.1183L6.70315 13.0236ZM6.03019 14.1194C6.33247 14.3057 6.72856 14.2117 6.91488 13.9094C7.10121 13.6072 7.00721 13.2111 6.70494 13.0247L6.03019 14.1194ZM8.99449 8.45605C8.69221 8.26973 8.29612 8.36372 8.10979 8.666C7.92346 8.96828 8.01746 9.36437 8.31974 9.5507L8.99449 8.45605ZM8.32152 9.5518C8.6238 9.73812 9.01989 9.64413 9.20622 9.34185C9.39255 9.03957 9.29855 8.64348 8.99627 8.45715L8.32152 9.5518ZM8.02756 13.5777C8.02756 13.9328 8.31542 14.2206 8.67051 14.2206C9.0256 14.2206 9.31346 13.9328 9.31346 13.5777H8.02756ZM9.31346 11.2838C9.31346 10.9287 9.0256 10.6409 8.67051 10.6409C8.31542 10.6409 8.02756 10.9287 8.02756 11.2838H9.31346ZM9.50937 16.3571H3.22219V17.6429H9.50937V16.3571ZM3.22219 16.3571C2.15679 16.3571 1.29334 15.4936 1.29334 14.4282H0.00744164C0.00744164 16.2038 1.44661 17.6429 3.22219 17.6429V16.3571ZM1.29334 14.4282V3.5718H0.00744164V14.4282H1.29334ZM1.29334 3.5718C1.29334 2.5064 2.15679 1.64295 3.22219 1.64295V0.357051C1.44661 0.357051 0.00744164 1.79622 0.00744164 3.5718H1.29334ZM3.22219 1.64295H9.50851V0.357051H3.22219V1.64295ZM9.50851 1.64295C10.5739 1.64295 11.4374 2.5064 11.4374 3.5718H12.7233C12.7233 1.79622 11.2841 0.357051 9.50851 0.357051V1.64295ZM11.4374 3.5718V14.4282H12.7233V3.5718H11.4374ZM11.4374 14.4286C11.438 15.4936 10.5748 16.3571 9.50937 16.3571V17.6429C11.2849 17.6429 12.7243 16.2038 12.7233 14.4278L11.4374 14.4286ZM4.07945 5.07201H8.6521V3.78611H4.07945V5.07201ZM3.7379 14.1183L3.73968 14.1194L4.41443 13.0247L4.41265 13.0236L3.7379 14.1183ZM3.7379 11.8345L3.73968 11.8356L4.41443 10.7409L4.41265 10.7398L3.7379 11.8345ZM3.7379 9.55067L3.73968 9.55177L4.41443 8.45712L4.41265 8.45602L3.7379 9.55067ZM6.0284 9.55067L6.03019 9.55177L6.70494 8.45712L6.70315 8.45602L6.0284 9.55067ZM6.0284 11.8345L6.03019 11.8356L6.70494 10.7409L6.70315 10.7398L6.0284 11.8345ZM6.0284 14.1183L6.03019 14.1194L6.70494 13.0247L6.70315 13.0236L6.0284 14.1183ZM8.31974 9.5507L8.32152 9.5518L8.99627 8.45715L8.99449 8.45605L8.31974 9.5507ZM9.31346 13.5777V11.2838H8.02756V13.5777H9.31346Z" fill="#AAA4B6"/>
</svg>
