<svg width="14" height="14" viewBox="0 0 18 17" fill="none" xmlns="http://www.w3.org/2000/svg">
<path d="M6.57434 16L5.98702 15.1647C4.915 13.6402 4.34041 11.8221 4.34041 9.95895C4.34041 7.55646 6.19153 5.46187 8.59327 5.3892C11.0782 5.31429 13.1158 7.307 13.1158 9.77466M13.1143 14.1616C10.6916 14.1616 8.72811 12.1974 8.72811 9.77541M2.65784 14.1616L2.59417 13.8859C2.29751 12.6116 2.14693 11.3081 2.14693 10.0002C2.14693 6.77361 4.36962 3.84897 7.54822 3.29686C11.631 2.58817 15.1842 5.64541 15.3055 9.5679C15.3438 10.7882 14.45 11.9037 13.2312 11.9666C11.9966 12.0303 10.971 11.0729 10.9231 9.86456C10.8826 8.84723 10.2811 7.89957 9.29296 7.6531C7.83739 7.28902 6.53389 8.38051 6.53389 9.77616C6.53389 13.0656 8.11232 14.9377 11.1276 15.9041M1 5.61469C2.48255 2.86685 5.38696 1 8.72811 1C12.0603 1 14.958 2.85711 16.4442 5.59222" stroke="#AAA4B6" stroke-width="1.12371" stroke-miterlimit="10" stroke-linecap="round" stroke-linejoin="round"/>
</svg>
