<svg width="162" height="35" viewBox="0 0 160 35" fill="none" xmlns="http://www.w3.org/2000/svg">
<path d="M8.31313 29.3307C7.54155 29.3307 6.78098 29.1653 6.03143 28.8347C5.30394 28.504 4.63155 28.008 4.01428 27.3466C3.41905 26.6852 2.94508 25.8475 2.59235 24.8334C2.23962 23.8193 2.06326 22.6399 2.06326 21.2951C2.06326 19.9063 2.25065 18.7268 2.62542 17.7568C3.00019 16.7648 3.49621 15.9601 4.11348 15.3429C4.73076 14.7036 5.41416 14.2406 6.16371 13.954C6.91325 13.6454 7.67382 13.4911 8.44541 13.4911C9.15086 13.4911 9.77915 13.6013 10.3303 13.8217C10.9035 14.0422 11.3995 14.3508 11.8184 14.7476C12.2593 15.1224 12.601 15.5743 12.8435 16.1034V7.0097H15.026H15.3566V7.24118C15.2244 7.37345 15.1362 7.51675 15.0921 7.67106C15.0701 7.82538 15.059 8.08993 15.059 8.4647L15.0921 26.6522C15.0921 27.049 15.1031 27.4458 15.1252 27.8426C15.1693 28.2174 15.2685 28.6032 15.4228 29H13.0749C12.9647 28.7355 12.8876 28.4709 12.8435 28.2064C12.7994 27.9418 12.7663 27.6883 12.7443 27.4458C12.7443 27.1813 12.7443 26.9167 12.7443 26.6522C12.4356 27.1813 12.0609 27.6552 11.6199 28.0741C11.179 28.4709 10.683 28.7795 10.1319 29C9.58075 29.2205 8.9745 29.3307 8.31313 29.3307ZM8.67688 27.2474C9.40438 27.2474 10.0217 27.1041 10.5287 26.8175C11.0357 26.5089 11.4436 26.09 11.7522 25.5609C12.0609 25.0098 12.2813 24.3815 12.4136 23.676C12.5679 22.9485 12.6451 22.1769 12.6451 21.3613C12.6451 20.2369 12.5018 19.2339 12.2152 18.3521C11.9286 17.4482 11.4767 16.7428 10.8594 16.2357C10.2421 15.7066 9.44847 15.4421 8.47848 15.4421C7.81711 15.4421 7.22189 15.5743 6.6928 15.8389C6.18575 16.0814 5.75587 16.4451 5.40314 16.9301C5.07246 17.4151 4.81894 17.9993 4.64257 18.6827C4.46621 19.3441 4.37803 20.0937 4.37803 20.9314C4.37803 22.188 4.54337 23.2902 4.87405 24.2382C5.20473 25.1861 5.68973 25.9247 6.32905 26.4538C6.96836 26.9828 7.75098 27.2474 8.67688 27.2474ZM43.5307 29.2315C42.5607 29.2315 41.767 29.0661 41.1498 28.7355C40.5325 28.4048 40.0585 27.8977 39.7278 27.2143C39.3972 26.5089 39.1767 25.6271 39.0665 24.5689C38.9783 23.5107 38.9563 22.2541 39.0003 20.7991L39.3972 10.0189L41.8773 9.72129L42.208 9.68822L42.241 9.9197C42.1308 10.074 42.0316 10.2283 41.9434 10.3827C41.8773 10.537 41.8222 10.8015 41.7781 11.1763L41.4805 14.913L41.5797 15.5082L41.3482 20.9644C41.282 22.6399 41.3261 23.9406 41.4805 24.8665C41.6348 25.7703 41.9103 26.3986 42.3072 26.7514C42.704 27.082 43.2331 27.2474 43.8944 27.2474C44.6219 27.2474 45.2612 27.1041 45.8124 26.8175C46.3856 26.5309 46.9808 26.1672 47.5981 25.7263L48.3256 27.6111C47.576 28.1623 46.8044 28.5701 46.0108 28.8347C45.2172 29.0992 44.3904 29.2315 43.5307 29.2315ZM35.9581 13.8879H46.8375V15.8389H35.9581V13.8879ZM52.5913 7.0097H54.873H55.2037V7.24118C55.0714 7.37345 54.9833 7.51675 54.9392 7.67106C54.9171 7.82538 54.9061 8.08993 54.9061 8.4647V16.5664C55.3029 15.9491 55.7659 15.42 56.295 14.9791C56.8461 14.5162 57.4193 14.1634 58.0145 13.9209C58.6318 13.6564 59.2491 13.5241 59.8663 13.5241C60.7702 13.5241 61.5638 13.7336 62.2472 14.1524C62.9527 14.5713 63.4928 15.2437 63.8676 16.1696C64.2644 17.0955 64.4628 18.319 64.4628 19.8401V29H62.148V19.9063C62.148 18.8481 62.0268 18.0104 61.7843 17.3931C61.5418 16.7538 61.2111 16.3018 60.7922 16.0373C60.3734 15.7507 59.8994 15.6074 59.3703 15.6074C58.9735 15.6074 58.5656 15.6735 58.1468 15.8058C57.7279 15.9381 57.3201 16.1365 56.9233 16.401C56.5485 16.6656 56.2068 16.9963 55.8982 17.3931C55.5895 17.7679 55.347 18.1977 55.1707 18.6827C54.9943 19.1677 54.9061 19.7079 54.9061 20.3031V29H52.5913V7.0097ZM88.1726 29.2315C87.2026 29.2315 86.409 29.0661 85.7917 28.7355C85.1745 28.4048 84.7005 27.8977 84.3698 27.2143C84.0391 26.5089 83.8187 25.6271 83.7084 24.5689C83.6203 23.5107 83.5982 22.2541 83.6423 20.7991L84.0391 10.0189L86.5192 9.72129L86.8499 9.68822L86.883 9.9197C86.7727 10.074 86.6735 10.2283 86.5854 10.3827C86.5192 10.537 86.4641 10.8015 86.42 11.1763L86.1224 14.913L86.2216 15.5082L85.9901 20.9644C85.924 22.6399 85.9681 23.9406 86.1224 24.8665C86.2767 25.7703 86.5523 26.3986 86.9491 26.7514C87.3459 27.082 87.875 27.2474 88.5364 27.2474C89.2639 27.2474 89.9032 27.1041 90.4543 26.8175C91.0275 26.5309 91.6227 26.1672 92.24 25.7263L92.9675 27.6111C92.218 28.1623 91.4464 28.5701 90.6527 28.8347C89.8591 29.0992 89.0324 29.2315 88.1726 29.2315ZM80.6 13.8879H91.4794V15.8389H80.6V13.8879ZM103.086 29.2645C101.72 29.2645 100.507 28.9339 99.4489 28.2725C98.4127 27.5891 97.597 26.6632 97.0018 25.4948C96.4066 24.3043 96.109 22.9485 96.109 21.4274C96.109 19.8842 96.4066 18.5284 97.0018 17.36C97.597 16.1696 98.4127 15.2437 99.4489 14.5823C100.507 13.8989 101.72 13.5572 103.086 13.5572C104.453 13.5572 105.655 13.8989 106.691 14.5823C107.749 15.2437 108.576 16.1696 109.171 17.36C109.766 18.5284 110.064 19.8842 110.064 21.4274C110.064 22.9485 109.766 24.3043 109.171 25.4948C108.576 26.6632 107.749 27.5891 106.691 28.2725C105.655 28.9339 104.453 29.2645 103.086 29.2645ZM103.086 27.2805C103.968 27.2805 104.74 27.0269 105.401 26.5199C106.062 26.0128 106.581 25.3184 106.955 24.4366C107.352 23.5548 107.551 22.5407 107.551 21.3943C107.551 20.248 107.352 19.2339 106.955 18.3521C106.581 17.4702 106.062 16.7868 105.401 16.3018C104.74 15.7948 103.968 15.5413 103.086 15.5413C102.227 15.5413 101.455 15.7948 100.772 16.3018C100.11 16.7868 99.5811 17.4702 99.1843 18.3521C98.8095 19.2339 98.6222 20.248 98.6222 21.3943C98.6222 22.5407 98.8095 23.5548 99.1843 24.4366C99.5811 25.3184 100.11 26.0128 100.772 26.5199C101.455 27.0269 102.227 27.2805 103.086 27.2805ZM119.62 29.2645C118.254 29.2645 117.041 28.9339 115.983 28.2725C114.947 27.5891 114.131 26.6632 113.536 25.4948C112.941 24.3043 112.643 22.9485 112.643 21.4274C112.643 19.8842 112.941 18.5284 113.536 17.36C114.131 16.1696 114.947 15.2437 115.983 14.5823C117.041 13.8989 118.254 13.5572 119.62 13.5572C120.987 13.5572 122.189 13.8989 123.225 14.5823C124.283 15.2437 125.11 16.1696 125.705 17.36C126.3 18.5284 126.598 19.8842 126.598 21.4274C126.598 22.9485 126.3 24.3043 125.705 25.4948C125.11 26.6632 124.283 27.5891 123.225 28.2725C122.189 28.9339 120.987 29.2645 119.62 29.2645ZM119.62 27.2805C120.502 27.2805 121.274 27.0269 121.935 26.5199C122.597 26.0128 123.115 25.3184 123.489 24.4366C123.886 23.5548 124.085 22.5407 124.085 21.3943C124.085 20.248 123.886 19.2339 123.489 18.3521C123.115 17.4702 122.597 16.7868 121.935 16.3018C121.274 15.7948 120.502 15.5413 119.62 15.5413C118.761 15.5413 117.989 15.7948 117.306 16.3018C116.644 16.7868 116.115 17.4702 115.718 18.3521C115.344 19.2339 115.156 20.248 115.156 21.3943C115.156 22.5407 115.344 23.5548 115.718 24.4366C116.115 25.3184 116.644 26.0128 117.306 26.5199C117.989 27.0269 118.761 27.2805 119.62 27.2805ZM130.5 29V27.082H134.964V8.92765H130.698V7.0097H137.378V27.082H141.809V29H130.5ZM152.722 29.3307C151.884 29.3307 151.079 29.2425 150.308 29.0661C149.558 28.8898 148.842 28.6252 148.158 28.2725C147.497 27.9198 146.88 27.4789 146.306 26.9498L147.629 24.7011L147.828 24.4035L148.026 24.5358C148.07 24.7122 148.114 24.8996 148.158 25.098C148.224 25.2743 148.379 25.4948 148.621 25.7593C149.084 26.2223 149.635 26.6081 150.275 26.9167C150.936 27.2033 151.774 27.3466 152.788 27.3466C153.603 27.3466 154.287 27.2474 154.838 27.049C155.411 26.8506 155.852 26.575 156.161 26.2223C156.469 25.8475 156.624 25.4176 156.624 24.9326C156.624 24.6019 156.557 24.3154 156.425 24.0729C156.293 23.8083 156.072 23.5658 155.764 23.3454C155.477 23.1249 155.091 22.9044 154.606 22.684C154.121 22.4635 153.526 22.2431 152.821 22.0226C151.674 21.6919 150.671 21.3062 149.812 20.8652C148.952 20.4243 148.29 19.9173 147.828 19.3441C147.365 18.7489 147.133 18.0765 147.133 17.327C147.133 16.5554 147.343 15.894 147.761 15.3429C148.18 14.7697 148.798 14.3288 149.613 14.0201C150.451 13.6895 151.476 13.5241 152.689 13.5241C153.394 13.5241 154.033 13.5792 154.606 13.6895C155.18 13.7776 155.709 13.9209 156.194 14.1193C156.679 14.3178 157.12 14.5713 157.516 14.8799C157.935 15.1665 158.332 15.5082 158.707 15.905L157.351 17.5584L157.12 17.823L156.954 17.6576C156.932 17.4813 156.877 17.3159 156.789 17.1616C156.723 16.9853 156.569 16.7758 156.326 16.5333C155.819 16.1365 155.246 15.8389 154.606 15.6405C153.967 15.42 153.35 15.3098 152.755 15.3098C151.873 15.3098 151.112 15.4641 150.473 15.7728C149.834 16.0814 149.514 16.5554 149.514 17.1947C149.514 17.5254 149.624 17.856 149.845 18.1867C150.087 18.4954 150.517 18.815 151.134 19.1457C151.752 19.4543 152.633 19.774 153.78 20.1047C155.036 20.5015 156.039 20.9093 156.789 21.3282C157.561 21.725 158.112 22.188 158.442 22.7171C158.795 23.2461 158.971 23.8744 158.971 24.6019C158.971 25.4397 158.74 26.2223 158.277 26.9498C157.836 27.6773 157.153 28.2615 156.227 28.7024C155.301 29.1212 154.132 29.3307 152.722 29.3307Z" fill="#FF34F0"/>
<rect x="32.9043" y="17.7797" width="1.87994" height="12.3438" transform="rotate(90 32.9043 17.7797)" fill="#FF34F0"/>
<rect x="32.9043" y="26.5333" width="1.87994" height="12.3438" transform="rotate(90 32.9043 26.5333)" fill="#FF34F0"/>
<rect x="32.9043" y="9.02609" width="1.87994" height="12.3438" transform="rotate(90 32.9043 9.02609)" fill="#FF34F0"/>
</svg>
