<svg width="23" height="18" viewBox="0 0 23 18" fill="none" xmlns="http://www.w3.org/2000/svg">
<g clip-path="url(#clip0_188_930)">
<path d="M19.4324 1.589C17.9553 0.912778 16.3961 0.433042 14.7943 0.162048C14.5752 0.553864 14.3768 0.956991 14.2002 1.36974C12.4941 1.11265 10.759 1.11265 9.05292 1.36974C8.87621 0.957035 8.6779 0.553913 8.45881 0.162048C6.85606 0.43533 5.29576 0.916205 3.81723 1.59254C0.881987 5.93528 0.0862895 10.1702 0.484139 14.3449C2.20309 15.615 4.12708 16.5809 6.17251 17.2006C6.63306 16.5812 7.0406 15.924 7.3908 15.2361C6.72565 14.9877 6.08368 14.6812 5.47229 14.3202C5.6332 14.2035 5.79056 14.0832 5.94263 13.9665C7.72162 14.8031 9.66332 15.2369 11.6292 15.2369C13.5951 15.2369 15.5368 14.8031 17.3158 13.9665C17.4696 14.0921 17.627 14.2123 17.7862 14.3202C17.1736 14.6818 16.5304 14.9889 15.8641 15.2379C16.2139 15.9254 16.6214 16.5821 17.0824 17.2006C19.1296 16.5833 21.055 15.6179 22.7743 14.3467C23.2412 9.50531 21.9768 5.30934 19.4324 1.589ZM7.89475 11.7775C6.78607 11.7775 5.87013 10.7714 5.87013 9.5336C5.87013 8.29586 6.75424 7.28089 7.89121 7.28089C9.02817 7.28089 9.93703 8.29586 9.91758 9.5336C9.89813 10.7714 9.02463 11.7775 7.89475 11.7775ZM15.3637 11.7775C14.2533 11.7775 13.3409 10.7714 13.3409 9.5336C13.3409 8.29586 14.225 7.28089 15.3637 7.28089C16.5024 7.28089 17.4042 8.29586 17.3848 9.5336C17.3653 10.7714 16.4936 11.7775 15.3637 11.7775Z" fill="#938D9E"/>
</g>
<defs>
<clipPath id="clip0_188_930">
<rect width="22.6408" height="17.1454" fill="white" transform="translate(0.359375 0.0837402)"/>
</clipPath>
</defs>
</svg>
