<svg width="21" height="21" viewBox="0 0 21 21" fill="none" xmlns="http://www.w3.org/2000/svg">
<g clip-path="url(#clip0_188_924)">
<path fill-rule="evenodd" clip-rule="evenodd" d="M10.291 -5.57146e-05C7.84541 -0.00254135 5.47887 0.865972 3.61547 2.44984C1.75207 4.03371 0.513618 6.22941 0.12205 8.64345C-0.269519 11.0575 0.211394 13.5321 1.4786 15.6237C2.74581 17.7154 4.71649 19.2874 7.03747 20.0581C7.55551 20.1529 7.73872 19.8307 7.73872 19.559C7.73872 19.2874 7.73872 18.6683 7.73872 17.8091C4.86424 18.4345 4.25776 16.4255 4.25776 16.4255C4.06706 15.8029 3.66194 15.2679 3.11428 14.9156C2.18561 14.2839 3.19009 14.2839 3.19009 14.2839C3.51564 14.3299 3.82645 14.4493 4.09899 14.6332C4.37153 14.8171 4.59865 15.0606 4.76316 15.3452C4.90294 15.5987 5.0914 15.8221 5.31771 16.0025C5.54403 16.1829 5.80375 16.3169 6.08197 16.3968C6.36019 16.4766 6.65144 16.5007 6.939 16.4677C7.22656 16.4347 7.50477 16.3452 7.75767 16.2044C7.79732 15.6847 8.02137 15.1963 8.38942 14.8272C6.10248 14.5682 3.70182 13.6837 3.70182 9.77317C3.68611 8.75161 4.06386 7.76314 4.75684 7.01241C4.4482 6.12418 4.48428 5.15245 4.85792 4.28955C4.85792 4.28955 5.72343 4.01158 7.68818 5.34458C9.37533 4.88135 11.1561 4.88135 12.8433 5.34458C14.808 4.01158 15.6672 4.28955 15.6672 4.28955C16.0461 5.14332 16.0912 6.10808 15.7936 6.99345C16.4866 7.74418 16.8643 8.73266 16.8486 9.75422C16.8486 13.709 14.4416 14.5745 12.1484 14.8082C12.3943 15.0554 12.5841 15.3526 12.7051 15.6796C12.8261 16.0066 12.8754 16.3558 12.8496 16.7035C12.8496 18.0807 12.8496 19.1926 12.8496 19.5274C12.8496 19.8623 13.0328 20.1213 13.5572 20.0202C15.8517 19.2292 17.7929 17.6527 19.0377 15.5692C20.2825 13.4856 20.7509 11.0292 20.3602 8.63379C19.9694 6.23839 18.7445 4.05818 16.902 2.47833C15.0596 0.89848 12.718 0.0206589 10.291 -5.57146e-05V-5.57146e-05Z" fill="#938D9E"/>
</g>
<defs>
<clipPath id="clip0_188_924">
<rect width="20.5825" height="20.0708" fill="white"/>
</clipPath>
</defs>
</svg>
