<svg width="21" height="21" viewBox="0 0 21 21" fill="none" xmlns="http://www.w3.org/2000/svg">
<path d="M7.6502 17.4769C7.91359 17.3939 8.05985 17.1132 7.97689 16.8498C7.89393 16.5864 7.61316 16.4401 7.34977 16.5231L7.6502 17.4769ZM2.55196 13.7164L2.06835 13.5894L1.81441 14.5566L2.29802 14.6836L2.55196 13.7164ZM13 20.5V21H14V20.5H13ZM13 13.5L12.9465 13.0029C12.7548 13.0235 12.592 13.1525 12.5282 13.3344C12.4643 13.5164 12.5108 13.7188 12.6476 13.8547L13 13.5ZM17.5 8.2775H18L18 8.27589L17.5 8.2775ZM16.3336 5.46875L15.8675 5.28774C15.7959 5.47224 15.8398 5.68164 15.9795 5.8218L16.3336 5.46875ZM16.2636 2.64512L16.7201 2.44124C16.6599 2.30632 16.543 2.20496 16.401 2.16436L16.2636 2.64512ZM13.2221 3.75375L13.096 4.23758C13.2315 4.27292 13.3757 4.24976 13.4934 4.17375L13.2221 3.75375ZM7.77785 3.75375L7.50664 4.1738C7.6243 4.24977 7.76844 4.27291 7.90396 4.23758L7.77785 3.75375ZM4.73635 2.64512L4.59887 2.1644C4.45684 2.20501 4.34004 2.30636 4.27981 2.44124L4.73635 2.64512ZM4.66635 5.46875L5.02038 5.82183C5.16016 5.68167 5.20409 5.47225 5.13243 5.28774L4.66635 5.46875ZM3.49998 8.30025H3.99998L3.99997 8.29897L3.49998 8.30025ZM7.99999 13.5L8.35294 13.8542C8.48865 13.7189 8.53514 13.518 8.47263 13.3369C8.41013 13.1558 8.24963 13.0263 8.0594 13.0035L7.99999 13.5ZM7.49999 15.6H7.99999C7.99999 15.5878 7.99954 15.5756 7.99864 15.5634L7.49999 15.6ZM6.99999 20.5V21H7.99999V20.5H6.99999ZM7.34977 16.5231C6.47889 16.7974 5.89863 16.7754 5.49248 16.6414C5.08781 16.5078 4.78703 16.2406 4.51527 15.8863C4.37819 15.7076 4.25348 15.5134 4.12637 15.3077C4.0037 15.1091 3.87159 14.8874 3.73711 14.6891C3.47399 14.3011 3.11526 13.8643 2.55196 13.7164L2.29802 14.6836C2.48459 14.7326 2.66639 14.8919 2.90946 15.2503C3.02807 15.4253 3.14047 15.6145 3.2756 15.8332C3.40628 16.0448 3.55266 16.2744 3.72183 16.495C4.06257 16.9391 4.51494 17.3718 5.17909 17.591C5.84175 17.8097 6.64596 17.7932 7.6502 17.4769L7.34977 16.5231ZM14 15.5125C14 14.6987 14.052 13.8402 13.3523 13.1453L12.6476 13.8547C12.9962 14.201 13 14.5763 13 15.5125H14ZM13.0534 13.9971C14.3014 13.863 15.5637 13.5658 16.5061 12.6903C17.464 11.8003 18 10.4025 18 8.2775H17C17 10.2423 16.507 11.3244 15.8254 11.9577C15.1284 12.6053 14.1406 12.8745 12.9465 13.0029L13.0534 13.9971ZM18 8.27589C17.9962 7.0907 17.5245 5.95496 16.6877 5.1157L15.9795 5.8218C16.6303 6.47439 16.997 7.35753 17 8.27911L18 8.27589ZM16.7997 5.64976C16.9991 5.13623 17.0948 4.58826 17.0811 4.03754L16.0814 4.06232C16.0918 4.48092 16.0191 4.89741 15.8675 5.28774L16.7997 5.64976ZM17.0811 4.03754C17.0675 3.48681 16.9448 2.94425 16.7201 2.44124L15.8071 2.84901C15.9778 3.23134 16.0711 3.64373 16.0814 4.06232L17.0811 4.03754ZM16.2636 2.64512C16.401 2.16436 16.4005 2.16423 16.4 2.16409C16.3999 2.16405 16.3994 2.16391 16.399 2.16382C16.3984 2.16364 16.3977 2.16345 16.397 2.16326C16.3957 2.16288 16.3943 2.16249 16.3928 2.1621C16.3898 2.1613 16.3866 2.16046 16.3832 2.1596C16.3763 2.15787 16.3685 2.15601 16.3598 2.1541C16.3423 2.15026 16.321 2.14618 16.296 2.14233C16.2458 2.13462 16.1807 2.12786 16.1002 2.12571C15.939 2.12141 15.7183 2.13565 15.4344 2.1963C14.8674 2.31745 14.051 2.62312 12.9508 3.33375L13.4934 4.17375C14.516 3.51325 15.2203 3.26461 15.6434 3.17423C15.8545 3.12912 15.9961 3.12329 16.0735 3.12535C16.1124 3.12639 16.1356 3.12943 16.144 3.13072C16.1482 3.13136 16.1488 3.13159 16.1458 3.13093C16.1443 3.1306 16.1419 3.13005 16.1386 3.12923C16.137 3.12882 16.1351 3.12834 16.1331 3.12778C16.132 3.1275 16.131 3.12721 16.1298 3.12689C16.1292 3.12674 16.1287 3.12657 16.1281 3.1264C16.1278 3.12632 16.1273 3.12619 16.1272 3.12615C16.1267 3.12602 16.1262 3.12589 16.2636 2.64512ZM13.3482 3.26992C11.4806 2.7831 9.51936 2.7831 7.65174 3.26992L7.90396 4.23758C9.6062 3.79388 11.3938 3.79388 13.096 4.23758L13.3482 3.26992ZM8.04906 3.33369C6.9485 2.62311 6.13214 2.31745 5.56523 2.1963C5.2814 2.13565 5.06073 2.12141 4.8996 2.12571C4.81915 2.12786 4.75406 2.13462 4.7039 2.14234C4.67885 2.14619 4.65759 2.15028 4.64008 2.15412C4.63133 2.15603 4.62352 2.15789 4.61665 2.15962C4.61322 2.16049 4.61002 2.16133 4.60706 2.16213C4.60557 2.16252 4.60415 2.16291 4.60279 2.16329C4.6021 2.16348 4.60144 2.16367 4.60078 2.16385C4.60046 2.16395 4.59998 2.16408 4.59982 2.16413C4.59934 2.16426 4.59887 2.1644 4.73635 2.64512C4.87383 3.12585 4.87337 3.12598 4.87291 3.12612C4.87276 3.12616 4.8723 3.12629 4.872 3.12637C4.8714 3.12654 4.87082 3.1267 4.87025 3.12686C4.86911 3.12718 4.86802 3.12747 4.86699 3.12775C4.86493 3.12831 4.86308 3.12879 4.86144 3.1292C4.85818 3.13003 4.85578 3.13058 4.85427 3.13091C4.85125 3.13157 4.85178 3.13135 4.85597 3.13071C4.8643 3.12943 4.88752 3.12639 4.9263 3.12535C5.00364 3.12329 5.14516 3.12911 5.35625 3.17422C5.77918 3.26461 6.48358 3.51326 7.50664 4.1738L8.04906 3.33369ZM4.27981 2.44124C4.05517 2.94425 3.93247 3.48681 3.91882 4.03754L4.91851 4.06232C4.92889 3.64373 5.02215 3.23134 5.19289 2.84901L4.27981 2.44124ZM3.91882 4.03754C3.90517 4.58826 4.00083 5.13623 4.20027 5.64976L5.13243 5.28774C4.98084 4.89741 4.90814 4.48092 4.91851 4.06232L3.91882 4.03754ZM4.31232 5.11567C3.89481 5.53431 3.56399 6.03119 3.33879 6.57787L4.26342 6.95875C4.43851 6.53368 4.69575 6.14733 5.02038 5.82183L4.31232 5.11567ZM3.33879 6.57787C3.1136 7.12455 2.99846 7.71029 2.99998 8.30153L3.99997 8.29897C3.9988 7.83925 4.08832 7.38382 4.26342 6.95875L3.33879 6.57787ZM2.99998 8.30025C2.99998 10.4117 3.53673 11.7967 4.49523 12.6806C5.43629 13.5484 6.6967 13.8476 7.94058 13.9965L8.0594 13.0035C6.86115 12.8601 5.87155 12.5895 5.17314 11.9455C4.49216 11.3175 3.99998 10.2488 3.99998 8.30025H2.99998ZM7.64703 13.1458C7.29105 13.5006 7.1219 13.9561 7.04431 14.3865C6.96666 14.8172 6.97374 15.261 7.00133 15.6366L7.99864 15.5634C7.97373 15.2242 7.97226 14.8756 8.02845 14.5639C8.0847 14.2518 8.1918 14.0147 8.35294 13.8542L7.64703 13.1458ZM6.99999 15.6V20.5H7.99999V15.6H6.99999ZM14 20.5V15.5125H13V20.5H14Z" fill="#000000"/>
</svg>
