<svg width="36" height="35" viewBox="0 0 36 35" fill="none" xmlns="http://www.w3.org/2000/svg">
<path d="M6.7054 11.6873L9.81712 14.8134L13.9032 10.7084L10.7915 7.58234C11.2001 5.78252 10.7287 3.82471 9.34567 2.43534C7.74269 0.82495 5.41674 0.4144 3.43656 1.20382L6.17109 3.95099C7.01969 4.80351 7.01969 6.19291 6.17109 7.01393C5.3225 7.86645 3.93949 7.86645 3.12225 7.01393L0.387711 4.26676C-0.398075 6.25614 0.0105861 8.59277 1.61356 10.2032C2.96506 11.6241 4.91381 12.0978 6.7054 11.6873Z" fill="url(#paint0_linear_188_863)"/>
<path d="M26.2359 23.1815L23.0598 19.9911L18.8892 24.1805L22.0653 27.3708C21.969 27.7898 21.9049 28.2408 21.9049 28.6598C21.9049 30.11 22.4502 31.5279 23.541 32.6236C25.1771 34.267 27.5512 34.686 29.5724 33.8804L26.7813 31.0768C25.9151 30.2067 25.9151 28.7888 26.7813 27.9509C27.6474 27.0808 29.059 27.0808 29.8932 27.9509L32.6843 30.7545C33.4863 28.7242 33.0692 26.3396 31.4331 24.6961C30.0536 23.246 28.0646 22.7626 26.2359 23.1815Z" fill="url(#paint1_linear_188_863)"/>
<path d="M1.75252 27.0231L5.63505 31.1377L5.05971 31.6806L1.17718 27.566L1.75252 27.0231Z" fill="url(#paint2_linear_188_863)"/>
<path d="M2.36334 25.9241L6.76764 30.5916L6.1923 31.1345L1.788 26.467L2.36334 25.9241Z" fill="url(#paint3_linear_188_863)"/>
<path d="M3.28063 25.2022L7.54154 29.7177L6.9662 30.2606L2.70529 25.7451L3.28063 25.2022Z" fill="url(#paint4_linear_188_863)"/>
<path d="M4.15236 24.3796L8.41326 28.8951L7.83792 29.438L3.57702 24.9225L4.15236 24.3796Z" fill="url(#paint5_linear_188_863)"/>
<path d="M5.02261 23.6079L9.23416 28.0711L8.65882 28.614L4.44727 24.1508L5.02261 23.6079Z" fill="url(#paint6_linear_188_863)"/>
<path d="M5.90593 22.8238L10.0681 27.2347L9.4928 27.7776L5.3306 23.3667L5.90593 22.8238Z" fill="url(#paint7_linear_188_863)"/>
<path d="M6.76458 22.0136L10.9268 26.4245L10.3514 26.9674L6.18925 22.5565L6.76458 22.0136Z" fill="url(#paint8_linear_188_863)"/>
<path d="M7.6651 21.2215L11.7697 25.5714L11.1944 26.1143L7.08976 21.7644L7.6651 21.2215Z" fill="url(#paint9_linear_188_863)"/>
<path d="M8.51067 20.4236L12.6153 24.7735L12.04 25.3164L7.93534 20.9665L8.51067 20.4236Z" fill="url(#paint10_linear_188_863)"/>
<path d="M9.42839 19.6758L13.415 23.9006L12.8396 24.4435L8.85305 20.2187L9.42839 19.6758Z" fill="url(#paint11_linear_188_863)"/>
<path d="M10.2871 18.8656L14.2736 23.0904L13.6983 23.6333L9.71173 19.4085L10.2871 18.8656Z" fill="url(#paint12_linear_188_863)"/>
<path d="M11.1551 18.0568L15.1314 22.2707L14.5561 22.8136L10.5798 18.5997L11.1551 18.0568Z" fill="url(#paint13_linear_188_863)"/>
<path d="M12.0479 17.3001L15.9386 21.4234L15.3633 21.9663L11.4725 17.843L12.0479 17.3001Z" fill="url(#paint14_linear_188_863)"/>
<path d="M12.935 16.5157L16.7731 20.5832L16.1977 21.1261L12.3596 17.0586L12.935 16.5157Z" fill="url(#paint15_linear_188_863)"/>
<path d="M13.8193 15.7327L17.606 19.7457L17.0307 20.2886L13.244 16.2756L13.8193 15.7327Z" fill="url(#paint16_linear_188_863)"/>
<path d="M14.6985 14.9443L18.4441 18.9137L17.8688 19.4566L14.1232 15.4872L14.6985 14.9443Z" fill="url(#paint17_linear_188_863)"/>
<path d="M15.5812 14.1638L19.2745 18.0779L18.6992 18.6208L15.0058 14.7067L15.5812 14.1638Z" fill="url(#paint18_linear_188_863)"/>
<path d="M16.4582 13.3774L20.1104 17.2479L19.5351 17.7908L15.8829 13.9203L16.4582 13.3774Z" fill="url(#paint19_linear_188_863)"/>
<path d="M17.3396 12.5869L20.9507 16.4138L20.3753 16.9567L16.7642 13.1298L17.3396 12.5869Z" fill="url(#paint20_linear_188_863)"/>
<path d="M18.2229 11.8028L21.7846 15.5774L21.2093 16.1203L17.6476 12.3457L18.2229 11.8028Z" fill="url(#paint21_linear_188_863)"/>
<path d="M19.0978 11.0185L22.6184 14.7495L22.043 15.2924L18.5224 11.5614L19.0978 11.0185Z" fill="url(#paint22_linear_188_863)"/>
<path d="M19.9315 10.1906L23.4932 13.9652L22.9179 14.5081L19.3562 10.7335L19.9315 10.1906Z" fill="url(#paint23_linear_188_863)"/>
<path d="M17.1993 0.936729L16.5542 1.54543L16.0113 0.97009L16.6564 0.361389L17.1993 0.936729Z" fill="url(#paint24_linear_188_863)"/>
<path d="M18.4926 1.36427L17.3768 2.41716L16.8339 1.84182L17.9497 0.788928L18.4926 1.36427Z" fill="url(#paint25_linear_188_863)"/>
<path d="M20.0925 1.45308L18.4537 2.99951L17.9108 2.42417L19.5496 0.877739L20.0925 1.45308Z" fill="url(#paint26_linear_188_863)"/>
<path d="M21.8565 1.43643L19.6423 3.52576L19.0995 2.95042L21.3136 0.86109L21.8565 1.43643Z" fill="url(#paint27_linear_188_863)"/>
<path d="M23.3344 1.6404L20.7715 4.05875L20.2286 3.48341L22.7915 1.06506L23.3344 1.6404Z" fill="url(#paint28_linear_188_863)"/>
<path d="M24.6502 2.02196L21.7212 4.78579L21.1783 4.21045L24.1073 1.44662L24.6502 2.02196Z" fill="url(#paint29_linear_188_863)"/>
<path d="M25.9312 2.43642L22.6186 5.56219L22.0757 4.98685L25.3883 1.86108L25.9312 2.43642Z" fill="url(#paint30_linear_188_863)"/>
<path d="M27.0875 2.99323L23.2145 6.64778L22.6716 6.07244L26.5446 2.41789L27.0875 2.99323Z" fill="url(#paint31_linear_188_863)"/>
<path d="M27.9407 3.78656L21.5583 9.80913L21.0154 9.23379L27.3978 3.21122L27.9407 3.78656Z" fill="url(#paint32_linear_188_863)"/>
<path d="M28.6957 4.69752L22.3685 10.6679L21.8257 10.0925L28.1528 4.12218L28.6957 4.69752Z" fill="url(#paint33_linear_188_863)"/>
<path d="M29.5059 5.55621L23.1788 11.5265L22.6359 10.9512L28.963 4.98087L29.5059 5.55621Z" fill="url(#paint34_linear_188_863)"/>
<path d="M30.3202 6.41911L23.9597 12.4209L23.4168 11.8456L29.7773 5.84377L30.3202 6.41911Z" fill="url(#paint35_linear_188_863)"/>
<path d="M31.1222 7.26905L24.7617 13.2708L24.2188 12.6955L30.5793 6.69371L31.1222 7.26905Z" fill="url(#paint36_linear_188_863)"/>
<path d="M31.13 8.88898L28.0615 11.7844L27.5186 11.2091L30.5871 8.31365L31.13 8.88898Z" fill="url(#paint37_linear_188_863)"/>
<path d="M31.9402 9.74763L28.8717 12.6431L28.3289 12.0677L31.3973 9.1723L31.9402 9.74763Z" fill="url(#paint38_linear_188_863)"/>
<path d="M33.0643 10.3102L29.3507 13.8143L28.8078 13.239L32.5214 9.73482L33.0643 10.3102Z" fill="url(#paint39_linear_188_863)"/>
<path d="M34.3631 10.7036L29.6707 15.1314L29.1278 14.5561L33.8202 10.1283L34.3631 10.7036Z" fill="url(#paint40_linear_188_863)"/>
<path d="M35.1713 11.5601L30.4789 15.9879L29.936 15.4125L34.6284 10.9848L35.1713 11.5601Z" fill="url(#paint41_linear_188_863)"/>
<path d="M35.6498 12.7359L31.4132 16.7336L30.8703 16.1582L35.1069 12.1605L35.6498 12.7359Z" fill="url(#paint42_linear_188_863)"/>
<defs>
<linearGradient id="paint0_linear_188_863" x1="17.5815" y1="0.527233" x2="17.5815" y2="34.1048" gradientUnits="userSpaceOnUse">
<stop stop-color="#9B37FF"/>
<stop offset="1" stop-color="#FF34F0"/>
</linearGradient>
<linearGradient id="paint1_linear_188_863" x1="17.5815" y1="0.527233" x2="17.5815" y2="34.1048" gradientUnits="userSpaceOnUse">
<stop stop-color="#9B37FF"/>
<stop offset="1" stop-color="#FF34F0"/>
</linearGradient>
<linearGradient id="paint2_linear_188_863" x1="17.5815" y1="0.527233" x2="17.5815" y2="34.1048" gradientUnits="userSpaceOnUse">
<stop stop-color="#9B37FF"/>
<stop offset="1" stop-color="#FF34F0"/>
</linearGradient>
<linearGradient id="paint3_linear_188_863" x1="17.5815" y1="0.527233" x2="17.5815" y2="34.1048" gradientUnits="userSpaceOnUse">
<stop stop-color="#9B37FF"/>
<stop offset="1" stop-color="#FF34F0"/>
</linearGradient>
<linearGradient id="paint4_linear_188_863" x1="17.5815" y1="0.527233" x2="17.5815" y2="34.1048" gradientUnits="userSpaceOnUse">
<stop stop-color="#9B37FF"/>
<stop offset="1" stop-color="#FF34F0"/>
</linearGradient>
<linearGradient id="paint5_linear_188_863" x1="17.5815" y1="0.527233" x2="17.5815" y2="34.1048" gradientUnits="userSpaceOnUse">
<stop stop-color="#9B37FF"/>
<stop offset="1" stop-color="#FF34F0"/>
</linearGradient>
<linearGradient id="paint6_linear_188_863" x1="17.5815" y1="0.527233" x2="17.5815" y2="34.1048" gradientUnits="userSpaceOnUse">
<stop stop-color="#9B37FF"/>
<stop offset="1" stop-color="#FF34F0"/>
</linearGradient>
<linearGradient id="paint7_linear_188_863" x1="17.5815" y1="0.527233" x2="17.5815" y2="34.1048" gradientUnits="userSpaceOnUse">
<stop stop-color="#9B37FF"/>
<stop offset="1" stop-color="#FF34F0"/>
</linearGradient>
<linearGradient id="paint8_linear_188_863" x1="17.5815" y1="0.527233" x2="17.5815" y2="34.1048" gradientUnits="userSpaceOnUse">
<stop stop-color="#9B37FF"/>
<stop offset="1" stop-color="#FF34F0"/>
</linearGradient>
<linearGradient id="paint9_linear_188_863" x1="17.5815" y1="0.527233" x2="17.5815" y2="34.1048" gradientUnits="userSpaceOnUse">
<stop stop-color="#9B37FF"/>
<stop offset="1" stop-color="#FF34F0"/>
</linearGradient>
<linearGradient id="paint10_linear_188_863" x1="17.5815" y1="0.527233" x2="17.5815" y2="34.1048" gradientUnits="userSpaceOnUse">
<stop stop-color="#9B37FF"/>
<stop offset="1" stop-color="#FF34F0"/>
</linearGradient>
<linearGradient id="paint11_linear_188_863" x1="17.5815" y1="0.527233" x2="17.5815" y2="34.1048" gradientUnits="userSpaceOnUse">
<stop stop-color="#9B37FF"/>
<stop offset="1" stop-color="#FF34F0"/>
</linearGradient>
<linearGradient id="paint12_linear_188_863" x1="17.5815" y1="0.527233" x2="17.5815" y2="34.1048" gradientUnits="userSpaceOnUse">
<stop stop-color="#9B37FF"/>
<stop offset="1" stop-color="#FF34F0"/>
</linearGradient>
<linearGradient id="paint13_linear_188_863" x1="17.5815" y1="0.527233" x2="17.5815" y2="34.1048" gradientUnits="userSpaceOnUse">
<stop stop-color="#9B37FF"/>
<stop offset="1" stop-color="#FF34F0"/>
</linearGradient>
<linearGradient id="paint14_linear_188_863" x1="17.5815" y1="0.527233" x2="17.5815" y2="34.1048" gradientUnits="userSpaceOnUse">
<stop stop-color="#9B37FF"/>
<stop offset="1" stop-color="#FF34F0"/>
</linearGradient>
<linearGradient id="paint15_linear_188_863" x1="17.5815" y1="0.527233" x2="17.5815" y2="34.1048" gradientUnits="userSpaceOnUse">
<stop stop-color="#9B37FF"/>
<stop offset="1" stop-color="#FF34F0"/>
</linearGradient>
<linearGradient id="paint16_linear_188_863" x1="17.5815" y1="0.527233" x2="17.5815" y2="34.1048" gradientUnits="userSpaceOnUse">
<stop stop-color="#9B37FF"/>
<stop offset="1" stop-color="#FF34F0"/>
</linearGradient>
<linearGradient id="paint17_linear_188_863" x1="17.5815" y1="0.527233" x2="17.5815" y2="34.1048" gradientUnits="userSpaceOnUse">
<stop stop-color="#9B37FF"/>
<stop offset="1" stop-color="#FF34F0"/>
</linearGradient>
<linearGradient id="paint18_linear_188_863" x1="17.5815" y1="0.527233" x2="17.5815" y2="34.1048" gradientUnits="userSpaceOnUse">
<stop stop-color="#9B37FF"/>
<stop offset="1" stop-color="#FF34F0"/>
</linearGradient>
<linearGradient id="paint19_linear_188_863" x1="17.5815" y1="0.527233" x2="17.5815" y2="34.1048" gradientUnits="userSpaceOnUse">
<stop stop-color="#9B37FF"/>
<stop offset="1" stop-color="#FF34F0"/>
</linearGradient>
<linearGradient id="paint20_linear_188_863" x1="17.5815" y1="0.527233" x2="17.5815" y2="34.1048" gradientUnits="userSpaceOnUse">
<stop stop-color="#9B37FF"/>
<stop offset="1" stop-color="#FF34F0"/>
</linearGradient>
<linearGradient id="paint21_linear_188_863" x1="17.5815" y1="0.527233" x2="17.5815" y2="34.1048" gradientUnits="userSpaceOnUse">
<stop stop-color="#9B37FF"/>
<stop offset="1" stop-color="#FF34F0"/>
</linearGradient>
<linearGradient id="paint22_linear_188_863" x1="17.5815" y1="0.527233" x2="17.5815" y2="34.1048" gradientUnits="userSpaceOnUse">
<stop stop-color="#9B37FF"/>
<stop offset="1" stop-color="#FF34F0"/>
</linearGradient>
<linearGradient id="paint23_linear_188_863" x1="17.5815" y1="0.527233" x2="17.5815" y2="34.1048" gradientUnits="userSpaceOnUse">
<stop stop-color="#9B37FF"/>
<stop offset="1" stop-color="#FF34F0"/>
</linearGradient>
<linearGradient id="paint24_linear_188_863" x1="17.5815" y1="0.527233" x2="17.5815" y2="34.1048" gradientUnits="userSpaceOnUse">
<stop stop-color="#9B37FF"/>
<stop offset="1" stop-color="#FF34F0"/>
</linearGradient>
<linearGradient id="paint25_linear_188_863" x1="17.5815" y1="0.527233" x2="17.5815" y2="34.1048" gradientUnits="userSpaceOnUse">
<stop stop-color="#9B37FF"/>
<stop offset="1" stop-color="#FF34F0"/>
</linearGradient>
<linearGradient id="paint26_linear_188_863" x1="17.5815" y1="0.527233" x2="17.5815" y2="34.1048" gradientUnits="userSpaceOnUse">
<stop stop-color="#9B37FF"/>
<stop offset="1" stop-color="#FF34F0"/>
</linearGradient>
<linearGradient id="paint27_linear_188_863" x1="17.5815" y1="0.527233" x2="17.5815" y2="34.1048" gradientUnits="userSpaceOnUse">
<stop stop-color="#9B37FF"/>
<stop offset="1" stop-color="#FF34F0"/>
</linearGradient>
<linearGradient id="paint28_linear_188_863" x1="17.5815" y1="0.527233" x2="17.5815" y2="34.1048" gradientUnits="userSpaceOnUse">
<stop stop-color="#9B37FF"/>
<stop offset="1" stop-color="#FF34F0"/>
</linearGradient>
<linearGradient id="paint29_linear_188_863" x1="17.5815" y1="0.527233" x2="17.5815" y2="34.1048" gradientUnits="userSpaceOnUse">
<stop stop-color="#9B37FF"/>
<stop offset="1" stop-color="#FF34F0"/>
</linearGradient>
<linearGradient id="paint30_linear_188_863" x1="17.5815" y1="0.527233" x2="17.5815" y2="34.1048" gradientUnits="userSpaceOnUse">
<stop stop-color="#9B37FF"/>
<stop offset="1" stop-color="#FF34F0"/>
</linearGradient>
<linearGradient id="paint31_linear_188_863" x1="17.5815" y1="0.527233" x2="17.5815" y2="34.1048" gradientUnits="userSpaceOnUse">
<stop stop-color="#9B37FF"/>
<stop offset="1" stop-color="#FF34F0"/>
</linearGradient>
<linearGradient id="paint32_linear_188_863" x1="17.5815" y1="0.527233" x2="17.5815" y2="34.1048" gradientUnits="userSpaceOnUse">
<stop stop-color="#9B37FF"/>
<stop offset="1" stop-color="#FF34F0"/>
</linearGradient>
<linearGradient id="paint33_linear_188_863" x1="17.5815" y1="0.527233" x2="17.5815" y2="34.1048" gradientUnits="userSpaceOnUse">
<stop stop-color="#9B37FF"/>
<stop offset="1" stop-color="#FF34F0"/>
</linearGradient>
<linearGradient id="paint34_linear_188_863" x1="17.5815" y1="0.527233" x2="17.5815" y2="34.1048" gradientUnits="userSpaceOnUse">
<stop stop-color="#9B37FF"/>
<stop offset="1" stop-color="#FF34F0"/>
</linearGradient>
<linearGradient id="paint35_linear_188_863" x1="17.5815" y1="0.527233" x2="17.5815" y2="34.1048" gradientUnits="userSpaceOnUse">
<stop stop-color="#9B37FF"/>
<stop offset="1" stop-color="#FF34F0"/>
</linearGradient>
<linearGradient id="paint36_linear_188_863" x1="17.5815" y1="0.527233" x2="17.5815" y2="34.1048" gradientUnits="userSpaceOnUse">
<stop stop-color="#9B37FF"/>
<stop offset="1" stop-color="#FF34F0"/>
</linearGradient>
<linearGradient id="paint37_linear_188_863" x1="17.5815" y1="0.527233" x2="17.5815" y2="34.1048" gradientUnits="userSpaceOnUse">
<stop stop-color="#9B37FF"/>
<stop offset="1" stop-color="#FF34F0"/>
</linearGradient>
<linearGradient id="paint38_linear_188_863" x1="17.5815" y1="0.527233" x2="17.5815" y2="34.1048" gradientUnits="userSpaceOnUse">
<stop stop-color="#9B37FF"/>
<stop offset="1" stop-color="#FF34F0"/>
</linearGradient>
<linearGradient id="paint39_linear_188_863" x1="17.5815" y1="0.527233" x2="17.5815" y2="34.1048" gradientUnits="userSpaceOnUse">
<stop stop-color="#9B37FF"/>
<stop offset="1" stop-color="#FF34F0"/>
</linearGradient>
<linearGradient id="paint40_linear_188_863" x1="17.5815" y1="0.527233" x2="17.5815" y2="34.1048" gradientUnits="userSpaceOnUse">
<stop stop-color="#9B37FF"/>
<stop offset="1" stop-color="#FF34F0"/>
</linearGradient>
<linearGradient id="paint41_linear_188_863" x1="17.5815" y1="0.527233" x2="17.5815" y2="34.1048" gradientUnits="userSpaceOnUse">
<stop stop-color="#9B37FF"/>
<stop offset="1" stop-color="#FF34F0"/>
</linearGradient>
<linearGradient id="paint42_linear_188_863" x1="17.5815" y1="0.527233" x2="17.5815" y2="34.1048" gradientUnits="userSpaceOnUse">
<stop stop-color="#9B37FF"/>
<stop offset="1" stop-color="#FF34F0"/>
</linearGradient>
</defs>
</svg>
