<svg width="15" height="15" viewBox="0 0 15 15" fill="none" xmlns="http://www.w3.org/2000/svg">
<path d="M4.76335 6.13542H3.34668V7.19792H4.76335V6.13542ZM3.34668 6.13542C2.46637 6.13542 1.75293 5.42197 1.75293 4.54167H0.69043C0.69043 6.00878 1.87957 7.19792 3.34668 7.19792V6.13542ZM1.75293 4.54167V3.125H0.69043V4.54167H1.75293ZM1.75293 3.125C1.75293 2.24469 2.46637 1.53125 3.34668 1.53125V0.46875C1.87957 0.46875 0.69043 1.65789 0.69043 3.125H1.75293ZM3.34668 1.53125H4.76335V0.46875H3.34668V1.53125ZM4.76335 1.53125C5.64365 1.53125 6.3571 2.24469 6.3571 3.125H7.4196C7.4196 1.65789 6.23046 0.46875 4.76335 0.46875V1.53125ZM6.3571 3.125V4.54167H7.4196V3.125H6.3571ZM6.3571 4.54167C6.3571 5.42197 5.64365 6.13542 4.76335 6.13542V7.19792C6.23046 7.19792 7.4196 6.00878 7.4196 4.54167H6.3571ZM12.3184 6.13542H10.9018V7.19792H12.3184V6.13542ZM10.9018 6.13542C10.0215 6.13542 9.30801 5.42197 9.30801 4.54167H8.24551C8.24551 6.00878 9.43465 7.19792 10.9018 7.19792V6.13542ZM9.30801 4.54167V3.125H8.24551V4.54167H9.30801ZM9.30801 3.125C9.30801 2.24469 10.0215 1.53125 10.9018 1.53125V0.46875C9.43465 0.46875 8.24551 1.65789 8.24551 3.125H9.30801ZM10.9018 1.53125H12.3184V0.46875H10.9018V1.53125ZM12.3184 1.53125C13.1987 1.53125 13.9122 2.24469 13.9122 3.125H14.9747C14.9747 1.65789 13.7855 0.46875 12.3184 0.46875V1.53125ZM13.9122 3.125V4.54167H14.9747V3.125H13.9122ZM13.9122 4.54167C13.9122 5.42197 13.1987 6.13542 12.3184 6.13542V7.19792C13.7855 7.19792 14.9747 6.00878 14.9747 4.54167H13.9122ZM4.76335 13.6891H3.34668V14.7516H4.76335V13.6891ZM3.34668 13.6891C2.46637 13.6891 1.75293 12.9756 1.75293 12.0953H0.69043C0.69043 13.5624 1.87957 14.7516 3.34668 14.7516V13.6891ZM1.75293 12.0953V10.6787H0.69043V12.0953H1.75293ZM1.75293 10.6787C1.75293 9.79836 2.46637 9.08492 3.34668 9.08492V8.02242C1.87957 8.02242 0.69043 9.21156 0.69043 10.6787H1.75293ZM3.34668 9.08492H4.76335V8.02242H3.34668V9.08492ZM4.76335 9.08492C5.64365 9.08492 6.3571 9.79836 6.3571 10.6787H7.4196C7.4196 9.21156 6.23046 8.02242 4.76335 8.02242V9.08492ZM6.3571 10.6787V12.0953H7.4196V10.6787H6.3571ZM6.3571 12.0953C6.3571 12.9756 5.64365 13.6891 4.76335 13.6891V14.7516C6.23046 14.7516 7.4196 13.5624 7.4196 12.0953H6.3571ZM12.3184 13.6891H10.9018V14.7516H12.3184V13.6891ZM10.9018 13.6891C10.0215 13.6891 9.30801 12.9756 9.30801 12.0953H8.24551C8.24551 13.5624 9.43465 14.7516 10.9018 14.7516V13.6891ZM9.30801 12.0953V10.6787H8.24551V12.0953H9.30801ZM9.30801 10.6787C9.30801 9.79836 10.0215 9.08492 10.9018 9.08492V8.02242C9.43465 8.02242 8.24551 9.21156 8.24551 10.6787H9.30801ZM10.9018 9.08492H12.3184V8.02242H10.9018V9.08492ZM12.3184 9.08492C13.1987 9.08492 13.9122 9.79836 13.9122 10.6787H14.9747C14.9747 9.21156 13.7855 8.02242 12.3184 8.02242V9.08492ZM13.9122 10.6787V12.0953H14.9747V10.6787H13.9122ZM13.9122 12.0953C13.9122 12.9756 13.1987 13.6891 12.3184 13.6891V14.7516C13.7855 14.7516 14.9747 13.5624 14.9747 12.0953H13.9122Z" fill="#AAA4B6"/>
</svg>
