<svg width="22" height="18" viewBox="0 0 22 18" fill="none" xmlns="http://www.w3.org/2000/svg">
<g clip-path="url(#clip0_188_928)">
<path d="M21.7728 2.10313C20.983 2.45322 19.9829 2.78183 19.0867 2.89107C19.9981 2.35026 21.4443 1.22387 21.7728 0.204926C20.9214 0.705443 19.3812 1.23998 18.3766 1.43339C17.5744 0.582775 16.4301 0.204926 15.1622 0.204926C12.7268 0.204926 11.0283 2.26878 11.0283 4.68182V6.47258C7.44672 6.47258 3.95474 3.74435 1.78166 1.10031C1.39933 1.74587 1.18444 2.50158 1.18444 3.30025C1.18444 4.92895 2.68063 6.58182 3.86521 7.36797C3.14264 7.34557 1.7745 6.79402 1.17907 6.47258C1.17907 6.48691 1.17907 6.50482 1.17907 6.52361C1.17907 8.64297 2.6663 10.0819 4.68179 10.483C4.31379 10.5842 3.86521 10.9495 2.13892 10.9495C2.69942 12.682 5.51718 13.598 7.44672 13.6356C5.93713 14.8059 3.24562 15.4264 1.17907 15.4264C0.821815 15.4264 0.628413 15.4461 0.283691 15.4058C2.23383 16.6414 4.95758 17.2171 7.44672 17.2171C15.5562 17.2171 19.982 11.0229 19.982 5.2459C19.982 5.0561 19.9758 4.42038 19.9659 4.23414C20.8327 3.62349 21.1837 2.98418 21.7728 2.10313Z" fill="#938D9E"/>
</g>
<defs>
<clipPath id="clip0_188_928">
<rect width="21.6117" height="17.2093" fill="white" transform="translate(0.165039 0.0837402)"/>
</clipPath>
</defs>
</svg>
