<svg width="390" height="372" viewBox="0 0 390 372" fill="none" xmlns="http://www.w3.org/2000/svg">
<path d="M73.6907 124.542L107.645 158.653L152.231 113.861L118.277 79.7498C122.736 60.1107 117.591 38.7477 102.501 23.5873C85.0093 6.01526 59.6292 1.53547 38.0221 10.1494L67.8605 40.1257C77.1202 49.4281 77.1202 64.5888 67.8605 73.5475C58.6009 82.85 43.5099 82.85 34.5924 73.5475L4.75402 43.5712C-3.82023 65.2788 0.638949 90.7753 18.1301 108.348C32.8773 123.853 54.1414 129.021 73.6907 124.542Z" fill="url(#paint0_linear_121_393)"/>
<path d="M286.802 249.963L252.145 215.151L206.636 260.864L241.293 295.675C240.242 300.247 239.543 305.169 239.543 309.741C239.543 325.564 245.493 341.036 257.396 352.992C275.249 370.925 301.154 375.497 323.208 366.706L292.752 336.114C283.301 326.62 283.301 311.148 292.752 302.005C302.204 292.512 317.607 292.512 326.709 302.005L357.165 332.597C365.916 310.444 361.365 284.423 343.512 266.49C328.459 250.666 306.755 245.392 286.802 249.963Z" fill="url(#paint1_linear_121_393)"/>
<path d="M19.6464 291.882L62.0113 336.779L55.7334 342.702L13.3685 297.806L19.6464 291.882Z" fill="url(#paint2_linear_121_393)"/>
<path d="M26.3115 279.889L74.3698 330.82L68.0919 336.743L20.0335 285.813L26.3115 279.889Z" fill="url(#paint3_linear_121_393)"/>
<path d="M36.3207 272.012L82.8144 321.284L76.5365 327.208L30.0427 277.936L36.3207 272.012Z" fill="url(#paint4_linear_121_393)"/>
<path d="M45.8327 263.036L92.3264 312.309L86.0485 318.233L39.5547 268.96L45.8327 263.036Z" fill="url(#paint5_linear_121_393)"/>
<path d="M55.3286 254.615L101.284 303.317L95.0059 309.241L49.0507 260.539L55.3286 254.615Z" fill="url(#paint6_linear_121_393)"/>
<path d="M64.9672 246.06L110.384 294.191L104.106 300.115L58.6893 251.984L64.9672 246.06Z" fill="url(#paint7_linear_121_393)"/>
<path d="M74.3365 237.219L119.753 285.35L113.475 291.274L68.0586 243.143L74.3365 237.219Z" fill="url(#paint8_linear_121_393)"/>
<path d="M84.1627 228.576L128.951 276.041L122.673 281.965L77.8848 234.5L84.1627 228.576Z" fill="url(#paint9_linear_121_393)"/>
<path d="M93.3893 219.87L138.178 267.335L131.9 273.259L87.1114 225.794L93.3893 219.87Z" fill="url(#paint10_linear_121_393)"/>
<path d="M103.403 211.71L146.903 257.81L140.625 263.734L97.1252 217.634L103.403 211.71Z" fill="url(#paint11_linear_121_393)"/>
<path d="M112.773 202.869L156.273 248.969L149.995 254.893L106.495 208.793L112.773 202.869Z" fill="url(#paint12_linear_121_393)"/>
<path d="M122.245 194.044L165.633 240.025L159.355 245.948L115.967 199.967L122.245 194.044Z" fill="url(#paint13_linear_121_393)"/>
<path d="M131.986 185.787L174.441 230.779L168.163 236.703L125.708 191.711L131.986 185.787Z" fill="url(#paint14_linear_121_393)"/>
<path d="M141.666 177.228L183.546 221.611L177.268 227.535L135.388 183.152L141.666 177.228Z" fill="url(#paint15_linear_121_393)"/>
<path d="M151.316 168.684L192.635 212.473L186.357 218.397L145.038 174.608L151.316 168.684Z" fill="url(#paint16_linear_121_393)"/>
<path d="M160.909 160.081L201.78 203.394L195.502 209.318L154.631 166.005L160.909 160.081Z" fill="url(#paint17_linear_121_393)"/>
<path d="M170.54 151.565L210.841 194.274L204.563 200.198L164.262 157.489L170.54 151.565Z" fill="url(#paint18_linear_121_393)"/>
<path d="M180.11 142.984L219.962 185.217L213.684 191.141L173.832 148.908L180.11 142.984Z" fill="url(#paint19_linear_121_393)"/>
<path d="M189.728 134.358L229.131 176.116L222.853 182.04L183.45 140.282L189.728 134.358Z" fill="url(#paint20_linear_121_393)"/>
<path d="M199.366 125.803L238.231 166.99L231.953 172.914L193.088 131.727L199.366 125.803Z" fill="url(#paint21_linear_121_393)"/>
<path d="M208.912 117.244L247.328 157.956L241.05 163.88L202.635 123.168L208.912 117.244Z" fill="url(#paint22_linear_121_393)"/>
<path d="M218.01 108.211L256.874 149.398L250.596 155.321L211.732 114.134L218.01 108.211Z" fill="url(#paint23_linear_121_393)"/>
<path d="M188.197 7.23496L181.158 13.8769L175.234 7.59899L182.273 0.957031L188.197 7.23496Z" fill="url(#paint24_linear_121_393)"/>
<path d="M202.309 11.9001L190.134 23.3889L184.21 17.111L196.385 5.62221L202.309 11.9001Z" fill="url(#paint25_linear_121_393)"/>
<path d="M219.767 12.8692L201.884 29.7434L195.96 23.4655L213.843 6.59128L219.767 12.8692Z" fill="url(#paint26_linear_121_393)"/>
<path d="M239.015 12.6875L214.855 35.4856L208.931 29.2077L233.091 6.40962L239.015 12.6875Z" fill="url(#paint27_linear_121_393)"/>
<path d="M255.141 14.9132L227.176 41.3015L221.252 35.0236L249.217 8.63528L255.141 14.9132Z" fill="url(#paint28_linear_121_393)"/>
<path d="M269.499 19.0767L237.539 49.2348L231.615 42.9569L263.575 12.7988L269.499 19.0767Z" fill="url(#paint29_linear_121_393)"/>
<path d="M283.476 23.5992L247.331 57.7065L241.407 51.4286L277.552 17.3212L283.476 23.5992Z" fill="url(#paint30_linear_121_393)"/>
<path d="M296.094 29.6749L253.833 69.5522L247.909 63.2743L290.17 23.3969L296.094 29.6749Z" fill="url(#paint31_linear_121_393)"/>
<path d="M305.404 38.3314L235.76 104.048L229.837 97.77L299.48 32.0535L305.404 38.3314Z" fill="url(#paint32_linear_121_393)"/>
<path d="M313.642 48.2716L244.602 113.418L238.678 107.14L307.718 41.9936L313.642 48.2716Z" fill="url(#paint33_linear_121_393)"/>
<path d="M322.483 57.6413L253.444 122.788L247.52 116.51L316.559 51.3633L322.483 57.6413Z" fill="url(#paint34_linear_121_393)"/>
<path d="M331.368 67.0571L261.965 132.547L256.041 126.269L325.444 60.7791L331.368 67.0571Z" fill="url(#paint35_linear_121_393)"/>
<path d="M340.119 76.3313L270.716 141.821L264.792 135.543L334.195 70.0533L340.119 76.3313Z" fill="url(#paint36_linear_121_393)"/>
<path d="M340.204 94.0075L306.722 125.602L300.798 119.324L334.281 87.7296L340.204 94.0075Z" fill="url(#paint37_linear_121_393)"/>
<path d="M349.045 103.377L315.563 134.971L309.639 128.693L343.121 97.099L349.045 103.377Z" fill="url(#paint38_linear_121_393)"/>
<path d="M361.311 109.515L320.79 147.751L314.866 141.473L355.387 103.237L361.311 109.515Z" fill="url(#paint39_linear_121_393)"/>
<path d="M375.483 113.809L324.281 162.123L318.357 155.845L369.559 107.531L375.483 113.809Z" fill="url(#paint40_linear_121_393)"/>
<path d="M384.302 123.154L333.1 171.469L327.176 165.191L378.378 116.876L384.302 123.154Z" fill="url(#paint41_linear_121_393)"/>
<path d="M389.523 135.984L343.295 179.605L337.371 173.327L383.599 129.706L389.523 135.984Z" fill="url(#paint42_linear_121_393)"/>
<defs>
<linearGradient id="paint0_linear_121_393" x1="192.367" y1="2.76667" x2="192.367" y2="369.155" gradientUnits="userSpaceOnUse">
<stop stop-color="#9B37FF"/>
<stop offset="1" stop-color="#FF34F0"/>
</linearGradient>
<linearGradient id="paint1_linear_121_393" x1="192.367" y1="2.76667" x2="192.367" y2="369.155" gradientUnits="userSpaceOnUse">
<stop stop-color="#9B37FF"/>
<stop offset="1" stop-color="#FF34F0"/>
</linearGradient>
<linearGradient id="paint2_linear_121_393" x1="192.367" y1="2.76667" x2="192.367" y2="369.155" gradientUnits="userSpaceOnUse">
<stop stop-color="#9B37FF"/>
<stop offset="1" stop-color="#FF34F0"/>
</linearGradient>
<linearGradient id="paint3_linear_121_393" x1="192.367" y1="2.76667" x2="192.367" y2="369.155" gradientUnits="userSpaceOnUse">
<stop stop-color="#9B37FF"/>
<stop offset="1" stop-color="#FF34F0"/>
</linearGradient>
<linearGradient id="paint4_linear_121_393" x1="192.367" y1="2.76667" x2="192.367" y2="369.155" gradientUnits="userSpaceOnUse">
<stop stop-color="#9B37FF"/>
<stop offset="1" stop-color="#FF34F0"/>
</linearGradient>
<linearGradient id="paint5_linear_121_393" x1="192.367" y1="2.76667" x2="192.367" y2="369.155" gradientUnits="userSpaceOnUse">
<stop stop-color="#9B37FF"/>
<stop offset="1" stop-color="#FF34F0"/>
</linearGradient>
<linearGradient id="paint6_linear_121_393" x1="192.367" y1="2.76667" x2="192.367" y2="369.155" gradientUnits="userSpaceOnUse">
<stop stop-color="#9B37FF"/>
<stop offset="1" stop-color="#FF34F0"/>
</linearGradient>
<linearGradient id="paint7_linear_121_393" x1="192.367" y1="2.76667" x2="192.367" y2="369.155" gradientUnits="userSpaceOnUse">
<stop stop-color="#9B37FF"/>
<stop offset="1" stop-color="#FF34F0"/>
</linearGradient>
<linearGradient id="paint8_linear_121_393" x1="192.367" y1="2.76667" x2="192.367" y2="369.155" gradientUnits="userSpaceOnUse">
<stop stop-color="#9B37FF"/>
<stop offset="1" stop-color="#FF34F0"/>
</linearGradient>
<linearGradient id="paint9_linear_121_393" x1="192.367" y1="2.76667" x2="192.367" y2="369.155" gradientUnits="userSpaceOnUse">
<stop stop-color="#9B37FF"/>
<stop offset="1" stop-color="#FF34F0"/>
</linearGradient>
<linearGradient id="paint10_linear_121_393" x1="192.367" y1="2.76667" x2="192.367" y2="369.155" gradientUnits="userSpaceOnUse">
<stop stop-color="#9B37FF"/>
<stop offset="1" stop-color="#FF34F0"/>
</linearGradient>
<linearGradient id="paint11_linear_121_393" x1="192.367" y1="2.76667" x2="192.367" y2="369.155" gradientUnits="userSpaceOnUse">
<stop stop-color="#9B37FF"/>
<stop offset="1" stop-color="#FF34F0"/>
</linearGradient>
<linearGradient id="paint12_linear_121_393" x1="192.367" y1="2.76667" x2="192.367" y2="369.155" gradientUnits="userSpaceOnUse">
<stop stop-color="#9B37FF"/>
<stop offset="1" stop-color="#FF34F0"/>
</linearGradient>
<linearGradient id="paint13_linear_121_393" x1="192.367" y1="2.76667" x2="192.367" y2="369.155" gradientUnits="userSpaceOnUse">
<stop stop-color="#9B37FF"/>
<stop offset="1" stop-color="#FF34F0"/>
</linearGradient>
<linearGradient id="paint14_linear_121_393" x1="192.367" y1="2.76667" x2="192.367" y2="369.155" gradientUnits="userSpaceOnUse">
<stop stop-color="#9B37FF"/>
<stop offset="1" stop-color="#FF34F0"/>
</linearGradient>
<linearGradient id="paint15_linear_121_393" x1="192.367" y1="2.76667" x2="192.367" y2="369.155" gradientUnits="userSpaceOnUse">
<stop stop-color="#9B37FF"/>
<stop offset="1" stop-color="#FF34F0"/>
</linearGradient>
<linearGradient id="paint16_linear_121_393" x1="192.367" y1="2.76667" x2="192.367" y2="369.155" gradientUnits="userSpaceOnUse">
<stop stop-color="#9B37FF"/>
<stop offset="1" stop-color="#FF34F0"/>
</linearGradient>
<linearGradient id="paint17_linear_121_393" x1="192.367" y1="2.76667" x2="192.367" y2="369.155" gradientUnits="userSpaceOnUse">
<stop stop-color="#9B37FF"/>
<stop offset="1" stop-color="#FF34F0"/>
</linearGradient>
<linearGradient id="paint18_linear_121_393" x1="192.367" y1="2.76667" x2="192.367" y2="369.155" gradientUnits="userSpaceOnUse">
<stop stop-color="#9B37FF"/>
<stop offset="1" stop-color="#FF34F0"/>
</linearGradient>
<linearGradient id="paint19_linear_121_393" x1="192.367" y1="2.76667" x2="192.367" y2="369.155" gradientUnits="userSpaceOnUse">
<stop stop-color="#9B37FF"/>
<stop offset="1" stop-color="#FF34F0"/>
</linearGradient>
<linearGradient id="paint20_linear_121_393" x1="192.367" y1="2.76667" x2="192.367" y2="369.155" gradientUnits="userSpaceOnUse">
<stop stop-color="#9B37FF"/>
<stop offset="1" stop-color="#FF34F0"/>
</linearGradient>
<linearGradient id="paint21_linear_121_393" x1="192.367" y1="2.76667" x2="192.367" y2="369.155" gradientUnits="userSpaceOnUse">
<stop stop-color="#9B37FF"/>
<stop offset="1" stop-color="#FF34F0"/>
</linearGradient>
<linearGradient id="paint22_linear_121_393" x1="192.367" y1="2.76667" x2="192.367" y2="369.155" gradientUnits="userSpaceOnUse">
<stop stop-color="#9B37FF"/>
<stop offset="1" stop-color="#FF34F0"/>
</linearGradient>
<linearGradient id="paint23_linear_121_393" x1="192.367" y1="2.76667" x2="192.367" y2="369.155" gradientUnits="userSpaceOnUse">
<stop stop-color="#9B37FF"/>
<stop offset="1" stop-color="#FF34F0"/>
</linearGradient>
<linearGradient id="paint24_linear_121_393" x1="192.367" y1="2.76667" x2="192.367" y2="369.155" gradientUnits="userSpaceOnUse">
<stop stop-color="#9B37FF"/>
<stop offset="1" stop-color="#FF34F0"/>
</linearGradient>
<linearGradient id="paint25_linear_121_393" x1="192.367" y1="2.76667" x2="192.367" y2="369.155" gradientUnits="userSpaceOnUse">
<stop stop-color="#9B37FF"/>
<stop offset="1" stop-color="#FF34F0"/>
</linearGradient>
<linearGradient id="paint26_linear_121_393" x1="192.367" y1="2.76667" x2="192.367" y2="369.155" gradientUnits="userSpaceOnUse">
<stop stop-color="#9B37FF"/>
<stop offset="1" stop-color="#FF34F0"/>
</linearGradient>
<linearGradient id="paint27_linear_121_393" x1="192.367" y1="2.76667" x2="192.367" y2="369.155" gradientUnits="userSpaceOnUse">
<stop stop-color="#9B37FF"/>
<stop offset="1" stop-color="#FF34F0"/>
</linearGradient>
<linearGradient id="paint28_linear_121_393" x1="192.367" y1="2.76667" x2="192.367" y2="369.155" gradientUnits="userSpaceOnUse">
<stop stop-color="#9B37FF"/>
<stop offset="1" stop-color="#FF34F0"/>
</linearGradient>
<linearGradient id="paint29_linear_121_393" x1="192.367" y1="2.76667" x2="192.367" y2="369.155" gradientUnits="userSpaceOnUse">
<stop stop-color="#9B37FF"/>
<stop offset="1" stop-color="#FF34F0"/>
</linearGradient>
<linearGradient id="paint30_linear_121_393" x1="192.367" y1="2.76667" x2="192.367" y2="369.155" gradientUnits="userSpaceOnUse">
<stop stop-color="#9B37FF"/>
<stop offset="1" stop-color="#FF34F0"/>
</linearGradient>
<linearGradient id="paint31_linear_121_393" x1="192.367" y1="2.76667" x2="192.367" y2="369.155" gradientUnits="userSpaceOnUse">
<stop stop-color="#9B37FF"/>
<stop offset="1" stop-color="#FF34F0"/>
</linearGradient>
<linearGradient id="paint32_linear_121_393" x1="192.367" y1="2.76667" x2="192.367" y2="369.155" gradientUnits="userSpaceOnUse">
<stop stop-color="#9B37FF"/>
<stop offset="1" stop-color="#FF34F0"/>
</linearGradient>
<linearGradient id="paint33_linear_121_393" x1="192.367" y1="2.76667" x2="192.367" y2="369.155" gradientUnits="userSpaceOnUse">
<stop stop-color="#9B37FF"/>
<stop offset="1" stop-color="#FF34F0"/>
</linearGradient>
<linearGradient id="paint34_linear_121_393" x1="192.367" y1="2.76667" x2="192.367" y2="369.155" gradientUnits="userSpaceOnUse">
<stop stop-color="#9B37FF"/>
<stop offset="1" stop-color="#FF34F0"/>
</linearGradient>
<linearGradient id="paint35_linear_121_393" x1="192.367" y1="2.76667" x2="192.367" y2="369.155" gradientUnits="userSpaceOnUse">
<stop stop-color="#9B37FF"/>
<stop offset="1" stop-color="#FF34F0"/>
</linearGradient>
<linearGradient id="paint36_linear_121_393" x1="192.367" y1="2.76667" x2="192.367" y2="369.155" gradientUnits="userSpaceOnUse">
<stop stop-color="#9B37FF"/>
<stop offset="1" stop-color="#FF34F0"/>
</linearGradient>
<linearGradient id="paint37_linear_121_393" x1="192.367" y1="2.76667" x2="192.367" y2="369.155" gradientUnits="userSpaceOnUse">
<stop stop-color="#9B37FF"/>
<stop offset="1" stop-color="#FF34F0"/>
</linearGradient>
<linearGradient id="paint38_linear_121_393" x1="192.367" y1="2.76667" x2="192.367" y2="369.155" gradientUnits="userSpaceOnUse">
<stop stop-color="#9B37FF"/>
<stop offset="1" stop-color="#FF34F0"/>
</linearGradient>
<linearGradient id="paint39_linear_121_393" x1="192.367" y1="2.76667" x2="192.367" y2="369.155" gradientUnits="userSpaceOnUse">
<stop stop-color="#9B37FF"/>
<stop offset="1" stop-color="#FF34F0"/>
</linearGradient>
<linearGradient id="paint40_linear_121_393" x1="192.367" y1="2.76667" x2="192.367" y2="369.155" gradientUnits="userSpaceOnUse">
<stop stop-color="#9B37FF"/>
<stop offset="1" stop-color="#FF34F0"/>
</linearGradient>
<linearGradient id="paint41_linear_121_393" x1="192.367" y1="2.76667" x2="192.367" y2="369.155" gradientUnits="userSpaceOnUse">
<stop stop-color="#9B37FF"/>
<stop offset="1" stop-color="#FF34F0"/>
</linearGradient>
<linearGradient id="paint42_linear_121_393" x1="192.367" y1="2.76667" x2="192.367" y2="369.155" gradientUnits="userSpaceOnUse">
<stop stop-color="#9B37FF"/>
<stop offset="1" stop-color="#FF34F0"/>
</linearGradient>
</defs>
</svg>
